<?xml version="1.0"?>
<svg xmlns="http://www.w3.org/2000/svg" xmlns:xlink="http://www.w3.org/1999/xlink" xmlns:svgjs="http://svgjs.com/svgjs" version="1.1" width="512" height="512" x="0" y="0" viewBox="0 0 512 512" style="enable-background:new 0 0 512 512" xml:space="preserve"><g><path xmlns="http://www.w3.org/2000/svg" d="m336 160c-97.047 0-176 78.953-176 176 0 59.461 29.644 112.123 74.925 144h-186.925c-8.822 0-16-7.178-16-16v-32c0-8.822 7.178-16 16-16h80c8.836 0 16-7.163 16-16s-7.164-16-16-16h-32c-8.822 0-16-7.178-16-16v-32c0-8.822 7.178-16 16-16h32c8.836 0 16-7.163 16-16s-7.164-16-16-16c-17.394 0-53.833 0-64 0-8.822 0-16-7.178-16-16v-32c0-8.822 7.178-16 16-16h96c8.836 0 16-7.163 16-16s-7.164-16-16-16h-64c-8.822 0-16-7.178-16-16v-32c0-8.822 7.178-16 16-16h176c26.467 0 48-21.532 48-48v-32c0-26.468-21.533-48-48-48h-224c-26.467 0-48 21.532-48 48v32c0 24.316 18.462 48 50.752 48-1.776 5.008-2.752 10.391-2.752 16 0 33.779-.9 38.907 3.393 49.691-20.369 5.553-35.393 24.205-35.393 46.309v32c0 22.104 15.024 40.756 35.393 46.308-2.181 5.479-3.393 11.445-3.393 17.692 0 33.1-.85 37.845 2.752 48-32.487 0-50.752 23.917-50.752 48v32c0 26.467 21.533 48 48 48h288c97.047 0 176-78.953 176-176s-78.953-176-176-176zm-304-80v-32c0-8.822 7.178-16 16-16h224c8.822 0 16 7.178 16 16v32c0 8.822-7.178 16-16 16-22.553 0-201.472 0-224 0-8.822 0-16-7.178-16-16zm304 400c-79.402 0-144-64.599-144-144s64.598-144 144-144 144 64.599 144 144-64.598 144-144 144z" fill="#ffffff" data-original="#000000" style=""/><path xmlns="http://www.w3.org/2000/svg" d="m344 240h-56c-8.836 0-16 7.163-16 16v160c0 8.837 7.164 16 16 16s16-7.163 16-16v-16h32c8.836 0 16-7.163 16-16s-7.164-16-16-16h-32v-16h40c30.878 0 56-25.121 56-56s-25.122-56-56-56zm0 80h-40v-48h40c13.233 0 24 10.767 24 24s-10.767 24-24 24z" fill="#ffffff" data-original="#000000" style=""/></g></svg>
