<?xml version="1.0" encoding="iso-8859-1"?>
<!-- Generator: Adobe Illustrator 19.0.0, SVG Export Plug-In . SVG Version: 6.00 Build 0)  -->
<svg version="1.1" id="Capa_1" xmlns="http://www.w3.org/2000/svg" xmlns:xlink="http://www.w3.org/1999/xlink" x="0px" y="0px"
	 viewBox="0 0 422.663 422.663" style="enable-background:new 0 0 422.663 422.663;" xml:space="preserve">
<g>
	<g>
		<path d="M98.36,85.474c-9.659-1.71-18.988-4.937-27.64-9.56c-1.792-1.291-4.292-0.885-5.584,0.907
			c-1.291,1.792-0.885,4.292,0.908,5.584c0.115,0.083,0.233,0.159,0.356,0.229c9.538,5.239,19.878,8.862,30.6,10.72l0.68,0.12
			c2.209,0.188,4.152-1.451,4.34-3.66C102.208,87.605,100.569,85.662,98.36,85.474z"/>
	</g>
</g>
<g>
	<g>
		<path d="M209,79.754c-1.336-1.8-3.88-2.177-5.68-0.84c-5.607,3.502-11.778,6.006-18.24,7.4c-2.166,0.437-3.567,2.547-3.13,4.712
			c0.003,0.016,0.007,0.032,0.01,0.048c0.403,1.877,2.081,3.203,4,3.16c0.279,0.039,0.561,0.039,0.84,0
			c7.588-1.637,14.821-4.617,21.36-8.8C209.96,84.098,210.337,81.555,209,79.754z"/>
	</g>
</g>
<g>
	<g>
		<path d="M227,65.434c-1.356-1.744-3.87-2.057-5.613-0.701c-0.009,0.007-0.018,0.014-0.027,0.021l-4.48,3.48
			c-1.745,1.354-2.062,3.867-0.708,5.612c0.755,0.973,1.916,1.544,3.148,1.548c0.884-0.003,1.742-0.298,2.44-0.84l4.52-3.52
			C228.021,69.684,228.343,67.181,227,65.434z"/>
	</g>
</g>
<g>
	<g>
		<path d="M372.68,127.434l-18.96-23.32c-1.477-1.643-4.006-1.777-5.649-0.3c-1.528,1.374-1.767,3.683-0.551,5.34l18.96,23.32
			c0.754,0.929,1.884,1.472,3.08,1.48c2.209,0.008,4.006-1.777,4.014-3.986C373.577,129.045,373.261,128.15,372.68,127.434z"/>
	</g>
</g>
<g>
	<g>
		<path d="M386.893,115.891c-0.004-0.005-0.009-0.011-0.013-0.016l-18.96-23.28c-1.386-1.703-3.885-1.971-5.6-0.6
			c-1.722,1.384-1.997,3.901-0.613,5.624c0.004,0.005,0.009,0.011,0.013,0.016l18.96,23.28c0.754,0.929,1.884,1.472,3.08,1.48
			c0.916,0.004,1.806-0.307,2.52-0.88C388.002,120.131,388.277,117.613,386.893,115.891z"/>
	</g>
</g>
<g>
	<g>
		<path d="M337.76,182.274c1.719-3.858,2.657-8.018,2.76-12.24c2.087,0.627,4.059,1.586,5.84,2.84
			c0.675,0.489,1.486,0.755,2.32,0.76c0.921-0.007,1.811-0.332,2.52-0.92l69.96-56.88c0.829-0.662,1.362-1.626,1.48-2.68
			c0.115-1.065-0.202-2.131-0.88-2.96l-41.16-50.6c-1.384-1.722-3.901-1.997-5.624-0.613c-0.005,0.004-0.011,0.009-0.016,0.013
			L305,115.914c-1.394,1.142-1.852,3.074-1.12,4.72c3.167,7.237,1.908,15.648-3.24,21.64c-1.235,1.483-1.235,3.637,0,5.12l7.48,9.2
			c-3.041,4.066-6.62,7.699-10.64,10.8c-13.68,10.4-16.44,26.72-16.88,35.48c-0.084,1.559-0.084,3.121,0,4.68H271v-35.68h9.92
			c2.209,0,4-1.791,4-4v-64.48c0-2.209-1.791-4-4-4h-15.68c9.56-9.72,5.04-20,0.96-28.88l-1.24-3.12c-0.72-1.6-1.4-3.28-2.08-4.96
			c-4-10.28-9.32-23.12-23.36-20.72c-8.081,1.388-15.929,3.892-23.32,7.44c-7.779,3.829-14.982,8.73-21.4,14.56
			c-7.775,7.244-17.107,12.608-27.28,15.68c-1.974-4.225-6.217-6.923-10.88-6.92h-28.36c-4.663-0.003-8.906,2.695-10.88,6.92
			c-10.188-3.084-19.534-8.462-27.32-15.72c-6.395-5.839-13.587-10.742-21.36-14.56c-7.403-3.554-15.265-6.059-23.36-7.44
			c-14-2.36-19.16,10.4-23.32,20.72c-0.68,1.68-1.36,3.36-2.08,4.96l-1.24,2.84c-4,9.08-8.6,19.16,0.96,28.88H4
			c-2.209,0-4,1.791-4,4v64.8c0,2.209,1.791,4,4,4h9.92v205.4c0,2.209,1.791,4,4,4H267c0.384-0.16,0.816-0.16,1.2,0h150.4
			c2.209,0,4-1.791,4-4v-165.64c0-2.209-1.791-4-4-4H292.48c10.306-6.009,21.254-10.839,32.64-14.4
			C330.699,191.542,335.295,187.557,337.76,182.274z M312.28,120.274l64.64-52.52l36,44.4l-64.52,52.56
			c-2.501-1.395-5.198-2.406-8-3c-0.612-5.559-1.737-11.049-3.36-16.4c1.68-2.442,1.55-5.7-0.32-8
			c-2.28-2.844-6.434-3.301-9.278-1.02c-0.041,0.033-0.082,0.066-0.122,0.1c-1.377,1.109-2.256,2.721-2.44,4.48
			c-0.167,1.758,0.365,3.511,1.48,4.88c0.801,0.989,1.87,1.725,3.08,2.12c1.284,4.345,2.22,8.786,2.8,13.28
			c-2.926,0.223-5.8,0.898-8.52,2l-14.92-18.36C313.622,137.573,314.902,128.552,312.28,120.274z M168.76,93.194v-5.8
			c11.646-3.274,22.343-9.28,31.2-17.52l0.08,0.2c5.912-5.351,12.535-9.86,19.68-13.4c6.731-3.239,13.879-5.528,21.24-6.8
			c6.88-1.16,9.88,4.2,14.56,16l2.16,5.2l1.32,2.88c4.76,10.6,7.4,16.44-4.36,24c-0.62,0.395-1.108,0.966-1.4,1.64h-86.36
			C168.099,97.681,168.751,95.462,168.76,93.194z M128.16,80.714h28.36c2.209,0,4,1.791,4,4v8c0,2.209-1.791,4-4,4h-28.24
			c-2.209,0-4-1.791-4-4l-0.12-8C124.16,82.505,125.951,80.714,128.16,80.714z M26,73.554l1.28-2.88c0.76-1.72,1.48-3.48,2.16-5.2
			c4.72-11.64,7.64-17,14.6-16c7.348,1.273,14.483,3.561,21.2,6.8c7.151,3.53,13.775,8.04,19.68,13.4
			c8.855,8.308,19.565,14.383,31.24,17.72v5.32c0.009,2.268,0.661,4.487,1.88,6.4H31.76c-0.32-0.635-0.803-1.174-1.4-1.56
			C18.36,90.034,21.2,84.194,26,73.554z M92.88,213.274h-4c-2.209,0-4,1.791-4,4c0,2.209,1.791,4,4,4h4v47h-4c-2.209,0-4,1.791-4,4
			c0,2.209,1.791,4,4,4h4v47.12h-4c-2.209,0-4,1.791-4,4c0,2.209,1.791,4,4,4h4v42H21.92v-42h3.16c2.209,0,4-1.791,4-4
			c0-2.209-1.791-4-4-4h-3.16v-47.12h3.16c2.209,0,4-1.791,4-4c0-2.209-1.791-4-4-4h-3.16v-47h3.16c2.209,0,4-1.791,4-4
			c0-2.209-1.791-4-4-4h-3.16v-41.4h70.96V213.274z M92.88,163.874H8v-56.48h84.88V163.874z M184.04,373.274l-83.16,0.12v-201.52
			h83.16V373.274z M184.04,163.874h-83.16v-56.48h83.16V163.874z M263,213.274h-2.64c-2.209,0-4,1.791-4,4c0,2.209,1.791,4,4,4H263
			v47h-2.64c-2.209,0-4,1.791-4,4c0,2.209,1.791,4,4,4H263v47.12h-2.64c-2.209,0-4,1.791-4,4c0,2.209,1.791,4,4,4H263v42h-70.96v-42
			h4.76c2.209,0,4-1.791,4-4c0-2.209-1.791-4-4-4h-4.76v-47.12h4.76c2.209,0,4-1.791,4-4c0-2.209-1.791-4-4-4h-4.76v-47h4.76
			c2.209,0,4-1.791,4-4c0-2.209-1.791-4-4-4h-4.76v-41.4H263V213.274z M192.04,163.874v-56.48h84.88v56.48H192.04z M271,373.274v-20
			l18.28,20H271z M300.12,373.274l-26.72-29.2c-0.638-0.664-1.486-1.088-2.4-1.2v-54.24l77.48,84.64H300.12z M359.32,373.274
			l-85.92-93.88c-0.632-0.679-1.48-1.117-2.4-1.24v-54.2l136.68,149.32H359.32z M414.6,215.754v24l-21.96-24H414.6z M381.8,215.634
			l31.6,34.56c0.345,0.351,0.752,0.636,1.2,0.84v53.28l-81.16-88.68H381.8z M322.6,215.634l90.8,99.24
			c0.345,0.351,0.752,0.636,1.2,0.84v53.28l-140.36-153.36H322.6z M288.84,200.474c0.664-10.36,5.534-19.999,13.48-26.68
			c4.077-3.144,7.746-6.786,10.92-10.84l6.08,7.68c1.231,1.518,3.38,1.924,5.08,0.96c2.465-1.368,5.191-2.2,8-2.44
			c-0.004,3.329-0.684,6.622-2,9.68c-1.555,3.311-4.476,5.779-8,6.76C310.701,189.306,299.446,194.296,288.84,200.474z"/>
	</g>
</g>
<g>
	<g>
		<path d="M237.16,117.794h-5.28c-2.209,0-4,1.791-4,4c0,2.209,1.791,4,4,4h5.28c2.209,0,4-1.791,4-4
			C241.16,119.585,239.369,117.794,237.16,117.794z"/>
	</g>
</g>
<g>
	<g>
		<path d="M272.12,117.794h-5.28c-2.209,0-4,1.791-4,4c0,2.209,1.791,4,4,4h5.28c2.209,0,4-1.791,4-4
			C276.12,119.585,274.329,117.794,272.12,117.794z"/>
	</g>
</g>
<g>
	<g>
		<path d="M202.2,117.794h-5.28c-2.209,0-4,1.791-4,4c0,2.209,1.791,4,4,4h5.28c2.209,0,4-1.791,4-4
			C206.2,119.585,204.409,117.794,202.2,117.794z"/>
	</g>
</g>
<g>
	<g>
		<path d="M219.68,145.274h-5.28c-2.209,0-4,1.791-4,4c0,2.209,1.791,4,4,4h5.28c2.209,0,4-1.791,4-4
			C223.68,147.065,221.889,145.274,219.68,145.274z"/>
	</g>
</g>
<g>
	<g>
		<path d="M254.64,145.274h-5.28c-2.209,0-4,1.791-4,4c0,2.209,1.791,4,4,4h5.28c2.209,0,4-1.791,4-4
			C258.64,147.065,256.849,145.274,254.64,145.274z"/>
	</g>
</g>
<g>
	<g>
		<path d="M53.16,117.794h-5.24c-2.209,0-4,1.791-4,4c0,2.209,1.791,4,4,4h5.24c2.209,0,4-1.791,4-4
			C57.16,119.585,55.369,117.794,53.16,117.794z"/>
	</g>
</g>
<g>
	<g>
		<path d="M88.16,117.794h-5.28c-2.209,0-4,1.791-4,4c0,2.209,1.791,4,4,4h5.28c2.209,0,4-1.791,4-4
			C92.16,119.585,90.369,117.794,88.16,117.794z"/>
	</g>
</g>
<g>
	<g>
		<path d="M18.2,117.794h-5.28c-2.209,0-4,1.791-4,4c0,2.209,1.791,4,4,4h5.28c2.209,0,4-1.791,4-4
			C22.2,119.585,20.409,117.794,18.2,117.794z"/>
	</g>
</g>
<g>
	<g>
		<path d="M35.68,145.274H30.4c-2.209,0-4,1.791-4,4c0,2.209,1.791,4,4,4h5.28c2.209,0,4-1.791,4-4
			C39.68,147.065,37.889,145.274,35.68,145.274z"/>
	</g>
</g>
<g>
	<g>
		<path d="M70.64,145.274H65.4c-2.209,0-4,1.791-4,4c0,2.209,1.791,4,4,4h5.24c2.209,0,4-1.791,4-4
			C74.64,147.065,72.849,145.274,70.64,145.274z"/>
	</g>
</g>
<g>
	<g>
		<path d="M42.28,185.794h-5.2c-2.209,0-4,1.791-4,4c0,2.209,1.791,4,4,4h5.2c2.209,0,4-1.791,4-4
			C46.28,187.585,44.489,185.794,42.28,185.794z"/>
	</g>
</g>
<g>
	<g>
		<path d="M76.52,185.794h-5.2c-2.209,0-4,1.791-4,4c0,2.209,1.791,4,4,4h5.2c2.209,0,4-1.791,4-4
			C80.52,187.585,78.729,185.794,76.52,185.794z"/>
	</g>
</g>
<g>
	<g>
		<path d="M59.32,213.274h-5.2c-2.209,0-4,1.791-4,4c0,2.209,1.791,4,4,4h5.2c2.209,0,4-1.791,4-4
			C63.32,215.065,61.529,213.274,59.32,213.274z"/>
	</g>
</g>
<g>
	<g>
		<path d="M42.28,240.794h-5.2c-2.209,0-4,1.791-4,4c0,2.209,1.791,4,4,4h5.2c2.209,0,4-1.791,4-4
			C46.28,242.585,44.489,240.794,42.28,240.794z"/>
	</g>
</g>
<g>
	<g>
		<path d="M76.52,240.794h-5.2c-2.209,0-4,1.791-4,4c0,2.209,1.791,4,4,4h5.2c2.209,0,4-1.791,4-4
			C80.52,242.585,78.729,240.794,76.52,240.794z"/>
	</g>
</g>
<g>
	<g>
		<path d="M59.32,268.274h-5.2c-2.209,0-4,1.791-4,4c0,2.209,1.791,4,4,4h5.2c2.209,0,4-1.791,4-4
			C63.32,270.065,61.529,268.274,59.32,268.274z"/>
	</g>
</g>
<g>
	<g>
		<path d="M42.28,295.794h-5.2c-2.209,0-4,1.791-4,4c0,2.209,1.791,4,4,4h5.2c2.209,0,4-1.791,4-4
			C46.28,297.585,44.489,295.794,42.28,295.794z"/>
	</g>
</g>
<g>
	<g>
		<path d="M76.52,295.794h-5.2c-2.209,0-4,1.791-4,4c0,2.209,1.791,4,4,4h5.2c2.209,0,4-1.791,4-4
			C80.52,297.585,78.729,295.794,76.52,295.794z"/>
	</g>
</g>
<g>
	<g>
		<path d="M59.32,323.394h-5.2c-2.209,0-4,1.791-4,4c0,2.209,1.791,4,4,4h5.2c2.209,0,4-1.791,4-4
			C63.32,325.185,61.529,323.394,59.32,323.394z"/>
	</g>
</g>
<g>
	<g>
		<path d="M42.28,350.794h-5.2c-2.209,0-4,1.791-4,4c0,2.209,1.791,4,4,4h5.2c2.209,0,4-1.791,4-4
			C46.28,352.585,44.489,350.794,42.28,350.794z"/>
	</g>
</g>
<g>
	<g>
		<path d="M76.52,350.794h-5.2c-2.209,0-4,1.791-4,4c0,2.209,1.791,4,4,4h5.2c2.209,0,4-1.791,4-4
			C80.52,352.585,78.729,350.794,76.52,350.794z"/>
	</g>
</g>
<g>
	<g>
		<path d="M214,185.794h-5.2c-2.209,0-4,1.791-4,4c0,2.209,1.791,4,4,4h5.2c2.209,0,4-1.791,4-4
			C218,187.585,216.209,185.794,214,185.794z"/>
	</g>
</g>
<g>
	<g>
		<path d="M248.52,185.794h-0.16h-5.04c-2.209,0-4,1.791-4,4c0,2.209,1.791,4,4,4h5.2c2.209,0,4-1.791,4-4
			C252.52,187.585,250.729,185.794,248.52,185.794z"/>
	</g>
</g>
<g>
	<g>
		<path d="M231.32,213.274H226c-2.209,0-4,1.791-4,4c0,2.209,1.791,4,4,4h5.32c2.209,0,4-1.791,4-4
			C235.32,215.065,233.529,213.274,231.32,213.274z"/>
	</g>
</g>
<g>
	<g>
		<path d="M214,240.794h-5.2c-2.209,0-4,1.791-4,4c0,2.209,1.791,4,4,4h5.2c2.209,0,4-1.791,4-4
			C218,242.585,216.209,240.794,214,240.794z"/>
	</g>
</g>
<g>
	<g>
		<path d="M248.52,240.794h-0.16h-5.04c-2.209,0-4,1.791-4,4c0,2.209,1.791,4,4,4h5.2c2.209,0,4-1.791,4-4
			C252.52,242.585,250.729,240.794,248.52,240.794z"/>
	</g>
</g>
<g>
	<g>
		<path d="M231.32,268.274H226c-2.209,0-4,1.791-4,4c0,2.209,1.791,4,4,4h5.32c2.209,0,4-1.791,4-4
			C235.32,270.065,233.529,268.274,231.32,268.274z"/>
	</g>
</g>
<g>
	<g>
		<path d="M214,295.794h-5.2c-2.209,0-4,1.791-4,4c0,2.209,1.791,4,4,4h5.2c2.209,0,4-1.791,4-4
			C218,297.585,216.209,295.794,214,295.794z"/>
	</g>
</g>
<g>
	<g>
		<path d="M248.52,295.794h-0.16h-5.04c-2.209,0-4,1.791-4,4c0,2.209,1.791,4,4,4h5.2c2.209,0,4-1.791,4-4
			C252.52,297.585,250.729,295.794,248.52,295.794z"/>
	</g>
</g>
<g>
	<g>
		<path d="M231.32,323.394H226c-2.209,0-4,1.791-4,4c0,2.209,1.791,4,4,4h5.32c2.209,0,4-1.791,4-4
			C235.32,325.185,233.529,323.394,231.32,323.394z"/>
	</g>
</g>
<g>
	<g>
		<path d="M214,350.794h-5.2c-2.209,0-4,1.791-4,4c0,2.209,1.791,4,4,4h5.2c2.209,0,4-1.791,4-4
			C218,352.585,216.209,350.794,214,350.794z"/>
	</g>
</g>
<g>
	<g>
		<path d="M248.52,350.794h-0.16h-5.04c-2.209,0-4,1.791-4,4c0,2.209,1.791,4,4,4h5.2c2.209,0,4-1.791,4-4
			C252.52,352.585,250.729,350.794,248.52,350.794z"/>
	</g>
</g>
<g>
</g>
<g>
</g>
<g>
</g>
<g>
</g>
<g>
</g>
<g>
</g>
<g>
</g>
<g>
</g>
<g>
</g>
<g>
</g>
<g>
</g>
<g>
</g>
<g>
</g>
<g>
</g>
<g>
</g>
</svg>
