<?xml version="1.0" encoding="iso-8859-1"?>
<!-- Generator: Adobe Illustrator 19.0.0, SVG Export Plug-In . SVG Version: 6.00 Build 0)  -->
<svg version="1.1" id="Capa_1" xmlns="http://www.w3.org/2000/svg" xmlns:xlink="http://www.w3.org/1999/xlink" x="0px" y="0px"
	 viewBox="0 0 409.064 409.064" style="enable-background:new 0 0 409.064 409.064;" xml:space="preserve">
<g>
	<g>
		<path d="M356.298,27.112c0-0.512-0.512-0.512-0.512-1.024l-1.024-1.024c0,0-0.512-0.512-1.024-0.512
			C315.85-9.24,281.546,1.512,280.01,2.024c-2.048,0.512-3.072,2.048-3.584,4.096l-8.704,59.904
			c-2.048-1.536-4.608-1.024-6.656,0.512l-19.968,19.968c-2.048,2.048-2.048,5.12,0,7.168l4.096,4.096l-230.4,245.76
			c-5.12,5.632-15.872,16.896-5.632,27.648c3.072,3.072,6.656,4.608,9.728,4.608c7.168,0,13.824-6.144,17.92-9.728l245.76-230.4
			l5.632,5.12c1.024,1.024,2.56,1.536,3.584,1.536c1.536,0,2.56-0.512,3.584-1.536l19.968-19.968c2.048-2.048,2.048-5.12,0-7.168
			l59.392-9.216c2.048-0.512,3.584-1.536,4.096-3.584C379.338,99.304,390.09,65,356.298,27.112z M30.666,358.888
			c-9.728,9.216-11.776,7.68-13.312,5.632c-1.536-1.536-3.584-3.584,5.632-13.312l229.888-245.76L276.426,129L30.666,358.888z
			 M291.274,129.512L252.362,90.6l12.8-12.8l38.912,38.912L291.274,129.512z M369.61,94.184l-62.976,10.24c0,0,0,0-0.512,0
			L277.45,74.728c-0.087,0.087-0.136,0.136-0.172,0.172c0.067-0.067,0.172-0.172,0.172-0.172l9.216-63.488
			c8.192-1.536,33.792-3.584,61.44,21.504C373.706,60.392,371.658,85.992,369.61,94.184z"/>
	</g>
</g>
<g>
	<g>
		<path d="M385.994,149.992l-0.512-0.512l-0.512-0.512l-0.512-0.512c-28.672-25.6-54.272-16.896-55.296-16.896
			c-2.56,0.512-4.096,2.048-4.096,3.584l-6.144,42.496c-1.536-0.512-3.584,0-4.608,1.536l-14.848,14.848
			c-1.024,1.024-1.536,2.048-1.536,3.584s0.512,2.56,1.536,3.584l2.048,2.048L133.066,383.464
			c-3.584,4.096-12.8,13.824-4.096,22.016c2.56,2.56,5.632,3.584,8.192,3.584c6.144,0,11.264-5.12,14.336-7.68l180.224-168.448
			l2.048,2.048c1.024,1.024,2.048,1.536,3.584,1.536c1.536,0,2.56-0.512,3.584-1.536l14.848-14.848
			c1.536-1.536,2.048-3.584,1.024-5.12l41.984-6.144c2.048-0.512,3.584-1.536,4.096-3.584
			C402.89,204.264,411.082,178.152,385.994,149.992z M143.818,394.216c-6.144,6.144-7.168,5.12-8.192,4.096
			c-0.512-0.512-1.536-1.536,4.096-8.192L308.17,210.408l15.36,15.36L143.818,394.216z M336.842,224.232l-27.136-27.136l7.68-7.68
			l26.624,26.624L336.842,224.232z M393.674,199.144l-45.056,6.656l-20.48-20.48l6.656-45.056
			c6.656-1.024,24.064-1.536,43.008,15.872C395.21,175.08,394.698,192.488,393.674,199.144z"/>
	</g>
</g>
<g>
</g>
<g>
</g>
<g>
</g>
<g>
</g>
<g>
</g>
<g>
</g>
<g>
</g>
<g>
</g>
<g>
</g>
<g>
</g>
<g>
</g>
<g>
</g>
<g>
</g>
<g>
</g>
<g>
</g>
</svg>
