<svg xmlns="http://www.w3.org/2000/svg" width="17" height="17" viewBox="0 0 17 17">
  <metadata><?xpacket begin="﻿" id="W5M0MpCehiHzreSzNTczkc9d"?>
<x:xmpmeta xmlns:x="adobe:ns:meta/" x:xmptk="Adobe XMP Core 5.6-c138 79.159824, 2016/09/14-01:09:01        ">
   <rdf:RDF xmlns:rdf="http://www.w3.org/1999/02/22-rdf-syntax-ns#">
      <rdf:Description rdf:about=""/>
   </rdf:RDF>
</x:xmpmeta>
                                                                                                    
                                                                                                    
                                                                                                    
                                                                                                    
                                                                                                    
                                                                                                    
                                                                                                    
                                                                                                    
                                                                                                    
                                                                                                    
                                                                                                    
                                                                                                    
                                                                                                    
                                                                                                    
                                                                                                    
                                                                                                    
                                                                                                    
                                                                                                    
                                                                                                    
                                                                                                    
                           
<?xpacket end="w"?></metadata>
<defs>
    <style>
      .cls-1 {
        fill: #fff;
        fill-rule: evenodd;
      }
    </style>
  </defs>
  <path id="Forma_1" data-name="Forma 1" class="cls-1" d="M245.5,28.061a7.436,7.436,0,1,1-7.438,7.436,7.445,7.445,0,0,1,7.438-7.436m0-1.063a8.5,8.5,0,1,0,8.5,8.5,8.5,8.5,0,0,0-8.5-8.5h0Zm4.739,11.341-0.048-.145a1.344,1.344,0,0,0-.822-0.776l-1.257-.345a1.235,1.235,0,0,0-1.075.283l-0.455.455a4.827,4.827,0,0,1-3.394-3.4l0.455-.453a1.236,1.236,0,0,0,.281-1.077l-0.343-1.257a1.345,1.345,0,0,0-.777-0.821l-0.143-.047a1.139,1.139,0,0,0-1.062.25l-0.681.681a1.255,1.255,0,0,0-.2.467,8.027,8.027,0,0,0,8.1,8.119,1.249,1.249,0,0,0,.489-0.2l0.681-.68A1.139,1.139,0,0,0,250.239,38.339Z" transform="translate(-237 -27)"/>
</svg>
