<svg xmlns="http://www.w3.org/2000/svg" width="17" height="17" viewBox="0 0 17 17">
  <metadata><?xpacket begin="﻿" id="W5M0MpCehiHzreSzNTczkc9d"?>
<x:xmpmeta xmlns:x="adobe:ns:meta/" x:xmptk="Adobe XMP Core 5.6-c138 79.159824, 2016/09/14-01:09:01        ">
   <rdf:RDF xmlns:rdf="http://www.w3.org/1999/02/22-rdf-syntax-ns#">
      <rdf:Description rdf:about=""/>
   </rdf:RDF>
</x:xmpmeta>
                                                                                                    
                                                                                                    
                                                                                                    
                                                                                                    
                                                                                                    
                                                                                                    
                                                                                                    
                                                                                                    
                                                                                                    
                                                                                                    
                                                                                                    
                                                                                                    
                                                                                                    
                                                                                                    
                                                                                                    
                                                                                                    
                                                                                                    
                                                                                                    
                                                                                                    
                                                                                                    
                           
<?xpacket end="w"?></metadata>
<defs>
    <style>
      .cls-1 {
        fill-rule: evenodd;
      }
    </style>
  </defs>
  <path id="Forma_1" data-name="Forma 1" class="cls-1" d="M1325.5,62.061a7.437,7.437,0,1,1-7.44,7.436,7.448,7.448,0,0,1,7.44-7.436m0-1.062a8.5,8.5,0,1,0,8.5,8.5,8.5,8.5,0,0,0-8.5-8.5h0Zm4.74,11.341-0.05-.145a1.337,1.337,0,0,0-.82-0.776l-1.26-.345a1.225,1.225,0,0,0-1.07.283l-0.46.455a4.814,4.814,0,0,1-3.39-3.4l0.45-.453a1.208,1.208,0,0,0,.28-1.077l-0.34-1.256a1.327,1.327,0,0,0-.78-0.821l-0.14-.047a1.137,1.137,0,0,0-1.06.25l-0.68.681a1.3,1.3,0,0,0-.2.467,8.024,8.024,0,0,0,8.1,8.119,1.249,1.249,0,0,0,.49-0.2l0.68-.679A1.139,1.139,0,0,0,1330.24,72.34Z" transform="translate(-1317 -61)"/>
</svg>
