<?xml version="1.0" encoding="iso-8859-1"?>
<!-- Generator: Adobe Illustrator 19.0.0, SVG Export Plug-In . SVG Version: 6.00 Build 0)  -->
<svg version="1.1" id="Capa_1" xmlns="http://www.w3.org/2000/svg" xmlns:xlink="http://www.w3.org/1999/xlink" x="0px" y="0px"
	 viewBox="0 0 512.001 512.001" style="enable-background:new 0 0 512.001 512.001;" xml:space="preserve">
<g>
	<g>
		<path d="M504.088,241.371l-50.183-50.181c-2.929-2.93-7.678-2.928-10.606,0c-2.929,2.93-2.929,7.678,0,10.607l46.704,46.703
			h-69.717l-73.09-73.09l34.858-34.858l39.147,39.147c1.465,1.464,3.385,2.196,5.304,2.196c1.919,0,3.839-0.732,5.304-2.196
			c2.929-2.93,2.929-7.678,0-10.607L270.63,7.913c-8.068-8.065-21.192-8.065-29.259,0l-136.18,136.18
			c-2.929,2.93-2.929,7.678,0,10.607c2.929,2.928,7.678,2.928,10.606,0l14.148-14.148l34.859,34.859l-73.09,73.09H21.997
			L93.7,176.798c2.929-2.93,2.929-7.678,0-10.607c-2.929-2.928-7.678-2.928-10.606,0l-75.181,75.18
			c-3.908,3.908-6.06,9.104-6.06,14.629c0,5.526,2.152,10.722,6.06,14.63L241.37,504.087c3.908,3.908,9.104,6.061,14.63,6.061
			c5.526,0,10.723-2.152,14.63-6.06L504.088,270.63C512.154,262.563,512.154,249.437,504.088,241.371z M263.5,21.998
			l107.947,107.947l-34.858,34.858L263.5,91.715V21.998z M140.552,129.945L248.5,21.998v69.718l-73.089,73.089L140.552,129.945z
			 M21.998,263.501h69.718l73.093,73.093l-34.859,34.859L21.998,263.501z M226.596,377.167c-2.928-2.927-7.677-2.929-10.606,0
			c-2.929,2.93-2.929,7.678,0,10.607l32.511,32.511v69.718L140.557,382.06l34.859-34.859l18.477,18.477
			c2.929,2.928,7.678,2.928,10.606,0c2.929-2.93,2.929-7.678,0-10.607l-23.693-23.693c-0.029-0.03-0.053-0.062-0.082-0.091
			c-0.029-0.029-0.061-0.054-0.091-0.083L105.429,256L256,105.429L406.571,256L256,406.572L226.596,377.167z M263.5,490.004v-69.718
			l73.089-73.089l34.855,34.862L263.5,490.004z M382.051,371.453l-34.855-34.862l73.089-73.089h69.718L382.051,371.453z"/>
	</g>
</g>
<g>
	<g>
		<path d="M509.804,2.198c-2.93-2.928-7.678-2.928-10.607,0l-31.033,31.033c-2.929,2.93-2.929,7.678,0,10.607
			c1.464,1.464,3.384,2.196,5.303,2.196s3.839-0.732,5.304-2.196l31.033-31.033C512.733,9.875,512.733,5.127,509.804,2.198z"/>
	</g>
</g>
<g>
	<g>
		<path d="M43.836,468.165c-2.928-2.929-7.677-2.929-10.606-0.001L2.197,499.197c-2.929,2.93-2.929,7.678,0,10.607
			c1.464,1.465,3.384,2.197,5.303,2.197s3.839-0.732,5.303-2.196l31.033-31.033C46.765,475.842,46.765,471.094,43.836,468.165z"/>
	</g>
</g>
<g>
	<g>
		<path d="M509.805,499.197l-31.034-31.033c-2.93-2.928-7.678-2.928-10.607,0c-2.929,2.93-2.929,7.678,0,10.607l31.033,31.033
			c1.465,1.464,3.385,2.196,5.304,2.196c1.919,0,3.839-0.732,5.304-2.196C512.734,506.874,512.734,502.126,509.805,499.197z"/>
	</g>
</g>
<g>
	<g>
		<path d="M43.836,33.231L12.803,2.197c-2.929-2.928-7.678-2.928-10.606,0c-2.929,2.93-2.929,7.678,0,10.607L33.23,43.838
			c1.464,1.464,3.384,2.196,5.303,2.196s3.839-0.732,5.303-2.196C46.765,40.908,46.765,36.16,43.836,33.231z"/>
	</g>
</g>
<g>
</g>
<g>
</g>
<g>
</g>
<g>
</g>
<g>
</g>
<g>
</g>
<g>
</g>
<g>
</g>
<g>
</g>
<g>
</g>
<g>
</g>
<g>
</g>
<g>
</g>
<g>
</g>
<g>
</g>
</svg>
